<svg id="Layer_1" xmlns="http://www.w3.org/2000/svg" viewBox="0 0 40 40"><style>.st0{fill:#fff}</style><path class="st0" d="M20 31.5c-6.3 0-11.5-5.1-11.5-11.5 0-6.3 5.1-11.5 11.5-11.5 6.3 0 11.5 5.1 11.5 11.5 0 6.3-5.2 11.5-11.5 11.5m12.3-16.7c-.7-1.6-1.6-3-2.9-4.2-1.2-1.2-2.7-2.2-4.2-2.9-1.6-.7-3.4-1-5.2-1-1.8 0-3.5.4-5.2 1-1.6.7-3 1.6-4.2 2.9-1.2 1.2-2.2 2.7-2.9 4.2-.7 1.6-1 3.4-1 5.2 0 1.8.4 3.5 1 5.2.7 1.6 1.6 3 2.9 4.2 1.2 1.2 2.7 2.2 4.2 2.9 1.6.7 3.4 1 5.2 1 1.8 0 3.5-.4 5.2-1 1.6-.7 3-1.6 4.2-2.9 1.2-1.2 2.2-2.7 2.9-4.2.7-1.6 1-3.4 1-5.2 0-1.8-.3-3.5-1-5.2"/><path class="st0" d="M23.6 11.2h-7.2c-1 0-1.9.4-2.6 1.1-.7.7-1.1 1.6-1.1 2.6v11.3c0 .5.1.9.4 1.2.3.3.7.5 1.2.5s.9-.2 1.2-.5c.3-.3.5-.7.5-1.2V14.5h2.4v11.7c0 .5.1.9.4 1.2.3.3.7.5 1.2.5s.9-.2 1.2-.5c.3-.3.4-.7.4-1.2V14.5H24v11.7c0 .5.2.9.5 1.2.3.3.7.5 1.2.5s.9-.2 1.2-.5c.3-.3.4-.7.4-1.2V14.9c0-1-.4-1.9-1.1-2.6-.7-.7-1.6-1.1-2.6-1.1"/></svg>