<svg xmlns="http://www.w3.org/2000/svg" viewBox="0 0 203.5 57.5"><path d="M69.8 18.5H59.4c-2.2 0-4 1.8-4 4v15.1c0 1 .8 1.9 1.9 1.9 1 0 1.9-.8 1.9-1.9V22.5c0-.1.1-.2.2-.2h3.3v15.3c0 1 .8 1.9 1.9 1.9 1 0 1.9-.8 1.9-1.9V22.3h3.3c.1 0 .2.1.2.2v15.1c0 1 .8 1.9 1.9 1.9 1 0 1.9-.8 1.9-1.9V22.5c0-2.2-1.8-4-4-4zM87.8 24h-9.7c-1 0-1.9.8-1.9 1.9 0 1 .8 1.9 1.9 1.9h9.7c.1 0 .2.1.2.2v7.5c0 .1-.1.2-.2.2H80v-2.4h4c1 0 1.9-.8 1.9-1.9 0-1-.8-1.9-1.9-1.9h-5.9c-1 0-1.9.8-1.9 1.9v6.1c0 1 .8 1.9 1.9 1.9h9.7c2.2 0 4-1.8 4-4v-7.5c-.1-2.1-1.9-3.9-4-3.9zM171.1 24h-7.6c-2.2 0-4 1.8-4 4v7.5c0 2.2 1.8 4 4 4h7.6c2.2 0 4-1.8 4-4V28c0-2.2-1.8-4-4-4zm.2 11.5c0 .1-.1.2-.2.2h-7.6c-.1 0-.2-.1-.2-.2V28c0-.1.1-.2.2-.2h7.6c.1 0 .2.1.2.2v7.5zM105.7 29.5h-.4v-3.7c0-1-.8-1.9-1.9-1.9-1 0-1.9.8-1.9 1.9v3.7h-3.7v-9.1c0-1-.8-1.9-1.9-1.9-1 0-1.9.8-1.9 1.9v17.2c0 1 .8 1.9 1.9 1.9 1 0 1.9-.8 1.9-1.9v-4.3h7.8c.1 0 .2.1.2.2v4.1c0 1 .8 1.9 1.9 1.9 1 0 1.9-.8 1.9-1.9v-4.1c.1-2.2-1.7-4-3.9-4zM123.1 24h-7.6c-2.2 0-4 1.8-4 4v7.5c0 2.2 1.8 4 4 4h9.7c1 0 1.9-.8 1.9-1.9 0-1-.8-1.9-1.9-1.9h-9.7c-.1 0-.2-.1-.2-.2V28c0-.1.1-.2.2-.2h7.6c.1 0 .2.1.2.2v1.8h-4c-1 0-1.9.8-1.9 1.9 0 1 .8 1.9 1.9 1.9h5.9c1 0 1.9-.8 1.9-1.9V28c-.1-2.2-1.8-4-4-4zM137.4 24h-4c-2.2 0-4 1.8-4 4v9.6c0 1 .8 1.9 1.9 1.9 1 0 1.9-.8 1.9-1.9V28c0-.1.1-.2.2-.2h4c1 0 1.9-.8 1.9-1.9 0-1-.8-1.9-1.9-1.9zM185.5 35.7h-3.8-.1-.1c-.1 0-.2-.1-.2-.2v-7.7h4.2c1 0 1.9-.8 1.9-1.9 0-1-.8-1.9-1.9-1.9h-4.2v-1c0-1-.8-1.9-1.9-1.9-1 0-1.9.8-1.9 1.9v12.4c0 2.2 1.8 4 4 4h4c1 0 1.9-.8 1.9-1.9 0-1-.9-1.8-1.9-1.8zM154.9 27.9c.1-.3.1-.7.1-1v-4.5c0-2.2-1.8-3.9-4-3.9h-8.2c-1 0-1.9.8-1.9 1.9v17.2c0 .5.2 1 .5 1.3.4.4.8.5 1.3.5h9.7c2.2 0 4-1.8 4-4v-4.3c0-1.3-.6-2.4-1.5-3.2zm-10.2-5.6h6.4s.2 0 .2.2V27c0 .1-.1.2-.1.2h-6.4v-4.9zm7.8 13.4h-7.8v-4.8h7.8c.1 0 .2.1.2.3v4.3c0 .1-.1.2-.2.2zM29.4 44c-8 0-14.5-6.5-14.5-14.5S21.4 15 29.4 15s14.5 6.5 14.5 14.5c-.1 8-6.5 14.5-14.5 14.5m15.5-21.1c-.8-2-2.1-3.8-3.6-5.3S38 14.8 36 14c-2.1-.9-4.3-1.3-6.5-1.3S25 13.1 23 14c-2 .8-3.8 2.1-5.3 3.6s-2.8 3.3-3.6 5.3c-.9 2.1-1.3 4.3-1.3 6.5 0 2.3.4 4.5 1.3 6.5.8 2 2.1 3.8 3.6 5.3S21 44 23 44.8c2.1.9 4.3 1.3 6.5 1.3s4.5-.4 6.5-1.3c2-.8 3.8-2.1 5.3-3.6s2.8-3.3 3.6-5.3c.9-2.1 1.3-4.3 1.3-6.5s-.5-4.4-1.3-6.5M190.5 25.9h.2c.3 0 .5-.1.5-.3 0-.2-.1-.3-.4-.3h-.3v.6zm0 1.1h-.5v-2c.2 0 .4-.1.8-.1s.6.1.7.1c.1.1.2.2.2.4s-.2.4-.4.4c.2.1.3.2.4.5.1.3.1.4.1.5h-.5c-.1-.1-.1-.2-.2-.5 0-.2-.2-.3-.4-.3h-.2v1zm-1.2-1c0 .9.7 1.5 1.6 1.5.9 0 1.6-.7 1.6-1.5 0-.9-.7-1.5-1.6-1.5-1-.1-1.6.6-1.6 1.5m3.6 0c0 1.1-.9 1.9-2.1 1.9-1.2 0-2.1-.9-2.1-1.9 0-1.1.9-1.9 2.1-1.9 1.2-.1 2.1.8 2.1 1.9"/><path d="M34.6 18.5H24.1c-2.2 0-4 1.8-4 4v15.1c0 1 .8 1.9 1.9 1.9 1 0 1.9-.8 1.9-1.9V22.5c0-.1.1-.2.2-.2h3.3v15.3c0 1 .8 1.9 1.9 1.9 1 0 1.9-.8 1.9-1.9V22.3h3.3c.1 0 .2.1.2.2v15.1c0 1 .8 1.9 1.9 1.9 1 0 1.9-.8 1.9-1.9V22.5c0-2.2-1.7-4-3.9-4z"/><g><path d="M44.8 43.3l-.8 1.2-.9-1.3H43v2.3h.2v-2l.8 1.2.8-1.2v2h.2v-2.3h-.2zm-3.7.1h.8v2.1h.1v-2.1h.8v-.2h-1.7v.2z"/></g></svg>