 <svg xmlns="http://www.w3.org/2000/svg" width="163" height="32" viewBox="0 0 163 32" role="img" title="icon makerbot full logo"><defs><style>.cls-1 { fill: #000; fill-rule: evenodd; opacity: 1.0; }</style></defs><path class="cls-1" d="M423.375,464.584h-9.72a3.744,3.744,0,0,0-3.7,3.775v14.355a1.752,1.752,0,1,0,3.5,0V468.359a0.2,0.2,0,0,1,.195-0.2h3.111v14.555a1.752,1.752,0,1,0,3.5,0V468.159h3.105a0.2,0.2,0,0,1,.2.2v14.355a1.753,1.753,0,1,0,3.5,0V468.359A3.744,3.744,0,0,0,423.375,464.584Zm16.742,5.22h-9.041a1.788,1.788,0,0,0,0,3.576h9.041a0.2,0.2,0,0,1,.2.2l0.012,7.125a0.2,0.2,0,0,1-.2.2h-7.289v-2.261h3.743a1.788,1.788,0,0,0,0-3.575h-5.5a1.767,1.767,0,0,0-1.752,1.785v5.837a1.77,1.77,0,0,0,1.752,1.79h9.041a3.742,3.742,0,0,0,3.7-3.776l-0.011-7.125A3.743,3.743,0,0,0,440.117,469.8Zm77.736,0.013h-7.112a3.737,3.737,0,0,0-3.7,3.773v7.115a3.74,3.74,0,0,0,3.7,3.776h7.112a3.743,3.743,0,0,0,3.7-3.776V473.59A3.74,3.74,0,0,0,517.853,469.817Zm0.193,10.888a0.2,0.2,0,0,1-.193.2h-7.112a0.2,0.2,0,0,1-.194-0.2V473.59a0.2,0.2,0,0,1,.194-0.2h7.112a0.2,0.2,0,0,1,.193.2v7.115Zm-61.154-5.636h-0.334v-3.475a1.752,1.752,0,1,0-3.5,0v3.475H449.6v-8.7a1.75,1.75,0,1,0-3.5,0v16.342a1.75,1.75,0,1,0,3.5,0v-4.07h7.293a0.2,0.2,0,0,1,.195.2v3.871a1.751,1.751,0,1,0,3.5,0v-3.871A3.738,3.738,0,0,0,456.892,475.069Zm16.15-5.252h-7.1a3.737,3.737,0,0,0-3.695,3.773v7.115a3.739,3.739,0,0,0,3.695,3.776h9.043a1.788,1.788,0,0,0,0-3.576h-9.043a0.2,0.2,0,0,1-.195-0.2V473.59a0.2,0.2,0,0,1,.195-0.2h7.1a0.233,0.233,0,0,1,.2.235v1.73h-3.743a1.789,1.789,0,0,0,0,3.577h5.492a1.772,1.772,0,0,0,1.753-1.787v-3.52A3.759,3.759,0,0,0,473.042,469.817Zm13.4-.013H482.69a3.744,3.744,0,0,0-3.7,3.776v9.111a1.751,1.751,0,1,0,3.5,0V473.58a0.2,0.2,0,0,1,.2-0.2h3.754A1.788,1.788,0,0,0,486.444,469.8Zm44.8,11.1h-3.554a0.77,0.77,0,0,0-.1.006,0.9,0.9,0,0,0-.1-0.006,0.2,0.2,0,0,1-.2-0.2v-7.318l3.95,0h0a1.786,1.786,0,0,0,0-3.572l-3.952,0v-0.928a1.751,1.751,0,1,0-3.5,0v11.818a3.742,3.742,0,0,0,3.7,3.776c0.033,0,.067,0,0.1-0.007s0.065,0.007.1,0.007h3.554A1.788,1.788,0,0,0,531.247,480.905Zm-28.567-7.379a3.944,3.944,0,0,0,.124-0.974v-4.235a3.72,3.72,0,0,0-3.695-3.735H491.42a1.773,1.773,0,0,0-1.751,1.79v16.319a1.814,1.814,0,0,0,.511,1.266,1.735,1.735,0,0,0,1.24.524h9.034a3.742,3.742,0,0,0,3.7-3.78l-0.007-4.127A3.872,3.872,0,0,0,502.68,473.526Zm-9.508-5.367h5.937a0.179,0.179,0,0,1,.194.158v4.235a0.2,0.2,0,0,1-.136.195h-5.995v-4.588Zm7.282,12.746h-7.282V476.32h7.272a0.259,0.259,0,0,1,.2.259l0.008,4.126A0.2,0.2,0,0,1,500.454,480.905Zm-114.772,7.883a13.785,13.785,0,1,1,13.5-13.782,13.645,13.645,0,0,1-13.5,13.782m14.447-20.013a15.975,15.975,0,0,0-3.359-5.086,15.627,15.627,0,0,0-4.984-3.43,15.44,15.44,0,0,0-12.209,0,15.612,15.612,0,0,0-4.983,3.43,15.961,15.961,0,0,0-3.36,5.086,16.349,16.349,0,0,0,0,12.462,15.961,15.961,0,0,0,3.36,5.086,15.612,15.612,0,0,0,4.983,3.43,15.44,15.44,0,0,0,12.209,0,15.627,15.627,0,0,0,4.984-3.43,15.975,15.975,0,0,0,3.359-5.086,16.349,16.349,0,0,0,0-12.462m-10.21-4.278h-8.475a4.059,4.059,0,0,0-3.051,1.3,4.342,4.342,0,0,0-1.243,3.114v13.582a2,2,0,0,0,.522,1.441,1.806,1.806,0,0,0,1.371.548,1.886,1.886,0,0,0,1.412-.548,1.967,1.967,0,0,0,.537-1.441V468.448h2.8v14.043a2.03,2.03,0,0,0,.508,1.441,2.023,2.023,0,0,0,2.769,0,2.03,2.03,0,0,0,.508-1.441V468.448h2.8v14.043a1.967,1.967,0,0,0,.537,1.441,1.887,1.887,0,0,0,1.413.548,1.783,1.783,0,0,0,1.37-.562,2.015,2.015,0,0,0,.523-1.427V468.909a4.343,4.343,0,0,0-1.244-3.114,4.059,4.059,0,0,0-3.051-1.3" transform="translate(-370 -459)"></path></svg>
